<?xml version="1.0" standalone="no"?>
<!DOCTYPE svg PUBLIC "-//W3C//DTD SVG 20010904//EN"
 "http://www.w3.org/TR/2001/REC-SVG-20010904/DTD/svg10.dtd">
<svg version="1.0" xmlns="http://www.w3.org/2000/svg"
 width="618.000000pt" height="618.000000pt" viewBox="0 0 618.000000 618.000000"
 preserveAspectRatio="xMidYMid meet">
<metadata>
Created by potrace 1.14, written by Peter Selinger 2001-2017
</metadata>
<g transform="translate(0.000000,618.000000) scale(0.100000,-0.100000)"
fill="#000000" stroke="none">
<path d="M2932 5639 c-60 -8 -94 -13 -157 -24 -66 -12 -235 -69 -313 -105
-330 -154 -584 -407 -737 -735 -39 -82 -88 -219 -99 -277 -2 -13 -9 -45 -15
-73 -17 -82 -28 -214 -25 -310 7 -265 72 -447 288 -813 69 -117 113 -204 130
-257 32 -101 122 -422 175 -625 92 -351 98 -371 119 -393 l22 -21 769 0 c737
0 771 0 790 18 21 19 46 93 186 551 175 572 192 616 318 875 110 227 147 311
171 392 82 283 41 640 -109 953 -220 458 -653 771 -1160 840 -77 10 -282 13
-353 4z"/>
<path d="M2840 1929 c-19 -5 -134 -29 -255 -54 -193 -40 -223 -48 -242 -71
-38 -42 -24 -106 28 -128 28 -12 58 -8 288 39 141 29 267 56 280 60 21 6 51
58 51 87 0 7 -10 26 -23 41 -25 31 -67 40 -127 26z"/>
<path d="M3757 1844 c-3 -4 -420 -97 -492 -110 -26 -4 -74 -15 -140 -30 -11
-3 -31 -7 -45 -10 -14 -3 -61 -13 -105 -24 -44 -10 -98 -21 -120 -24 -22 -4
-56 -11 -75 -16 -37 -10 -198 -46 -240 -54 -14 -2 -45 -9 -70 -15 -25 -5 -58
-12 -75 -15 -84 -15 -101 -128 -24 -160 26 -11 48 -8 157 16 70 16 136 30 147
32 11 2 97 20 190 41 94 20 179 39 190 41 11 2 103 22 205 44 102 23 196 43
210 46 292 60 346 75 368 100 42 48 20 115 -45 133 -17 5 -33 7 -36 5z"/>
<path d="M3758 1555 c-2 -2 -118 -26 -258 -55 -215 -43 -259 -55 -280 -75 -14
-14 -26 -34 -27 -46 -3 -33 25 -79 53 -89 30 -12 10 -15 324 49 220 45 247 53
268 76 42 49 20 116 -45 134 -17 5 -33 8 -35 6z"/>
<path d="M2364 1202 c-70 -11 -49 -203 35 -325 166 -242 520 -363 876 -301
282 49 507 222 569 435 25 84 23 146 -3 172 l-22 22 -717 0 c-394 0 -727 -1
-738 -3z"/>
</g>
</svg>
